<svg width="24" height="20" viewBox="0 0 24 20" fill="none" xmlns="http://www.w3.org/2000/svg">
<path d="M6.48606 14.6667C2.56148 11.4396 0.747729 8.46774 0.193327 7.43974C0.0591633 7.19097 0 6.91269 0 6.63004V4.47417C0 3.87602 0.267724 3.30927 0.72974 2.92936L3.02199 1.0445C3.76008 0.437585 4.82441 0.437585 5.56251 1.04451L8.48107 3.44437C9.33008 4.14249 9.4566 5.39492 8.76436 6.24873L8.04121 7.14068C7.50899 7.79713 7.44509 8.71885 7.93732 9.4058C8.48372 10.1684 9.24948 11.135 10.0152 11.7647C10.9432 12.5278 12.4731 13.2908 13.4337 13.7329C13.9827 13.9855 14.6155 13.9488 15.1455 13.6583L17.4132 12.4151C18.1299 12.0223 19.0136 12.105 19.6449 12.6241L22.444 14.9258C23.417 15.7258 23.417 17.2153 22.444 18.0154L20.5841 19.5448C20.2261 19.8391 19.7772 20 19.3138 20H16.0354C15.8384 20 15.6444 19.9716 15.4584 19.9066C14.4187 19.5429 10.625 18.07 6.48606 14.6667Z" fill="#9333EA"/>
</svg>
