<svg width="24" height="24" viewBox="0 0 24 24" fill="none" xmlns="http://www.w3.org/2000/svg">
<g clip-path="url(#clip0_1884_225944)">
<path d="M4.5 20.5C3.121 20.5 2 19.378 2 18C2 16.622 3.121 15.5 4.5 15.5C5.879 15.5 7 16.622 7 18C7 19.378 5.879 20.5 4.5 20.5ZM4.5 16.5C3.673 16.5 3 17.173 3 18C3 18.827 3.673 19.5 4.5 19.5C5.327 19.5 6 18.827 6 18C6 17.173 5.327 16.5 4.5 16.5Z" fill="#F9FAFB"/>
<path d="M19.5 20.5C18.121 20.5 17 19.378 17 18C17 16.622 18.121 15.5 19.5 15.5C20.879 15.5 22 16.622 22 18C22 19.378 20.879 20.5 19.5 20.5ZM19.5 16.5C18.673 16.5 18 17.173 18 18C18 18.827 18.673 19.5 19.5 19.5C20.327 19.5 21 18.827 21 18C21 17.173 20.327 16.5 19.5 16.5Z" fill="#F9FAFB"/>
<path d="M17.5 13.5H16.5C16.224 13.5 16 13.276 16 13C16 12.724 16.224 12.5 16.5 12.5H17.5C17.776 12.5 18 12.724 18 13C18 13.276 17.776 13.5 17.5 13.5Z" fill="#F9FAFB"/>
<path d="M8.5 18.4998C8.37 18.4998 8.24 18.4498 8.149 18.3498C8.05 18.2598 8 18.1298 8 17.9998C8 17.8698 8.05 17.7398 8.149 17.6498C8.33 17.4598 8.67 17.4598 8.849 17.6498C8.95 17.7398 9 17.8698 9 17.9998C9 18.1298 8.95 18.2598 8.85 18.3498C8.76 18.4498 8.63 18.4998 8.5 18.4998Z" fill="#F9FAFB"/>
<path d="M17.5 18.5H6.5C6.224 18.5 6 18.276 6 18C6 17.724 6.224 17.5 6.5 17.5H17.5C17.776 17.5 18 17.724 18 18C18 18.276 17.776 18.5 17.5 18.5Z" fill="#F9FAFB"/>
<path d="M20.5 11.5H16.5C16.224 11.5 16 11.276 16 11V7C16 6.724 16.224 6.5 16.5 6.5C16.776 6.5 17 6.724 17 7V10.5H20.5C20.776 10.5 21 10.724 21 11C21 11.276 20.776 11.5 20.5 11.5Z" fill="#F9FAFB"/>
<path d="M21.5008 18.5C21.2248 18.5 21.0008 18.276 21.0008 18C21.0008 17.724 21.2248 17.5 21.5008 17.5C22.3278 17.5 23.0008 16.827 23.0008 16V11.809L22.2768 11.447C22.1088 11.362 22.0008 11.189 22.0008 11V7C22.0008 6.811 22.1078 6.638 22.2768 6.553L23.0008 6.191V5.226C22.5938 4.907 21.8078 4.5 21.5008 4.5H13.0008V14C13.0008 14.276 12.7768 14.5 12.5008 14.5H1.89182L1.14182 17.5H2.50082C2.77682 17.5 3.00082 17.724 3.00082 18C3.00082 18.276 2.77682 18.5 2.50082 18.5H0.500819C0.346819 18.5 0.200819 18.429 0.105819 18.308C0.010819 18.187 -0.022181 18.029 0.014819 17.879L1.01482 13.879C1.07082 13.656 1.27182 13.5 1.50082 13.5H12.0008V4C12.0008 3.724 12.2248 3.5 12.5008 3.5H21.5008C22.2378 3.5 23.4608 4.253 23.8548 4.646C23.9478 4.74 24.0008 4.867 24.0008 5V6.5C24.0008 6.689 23.8938 6.862 23.7248 6.947L23.0008 7.309V10.691L23.7248 11.053C23.8938 11.138 24.0008 11.311 24.0008 11.5V16C24.0008 17.378 22.8798 18.5 21.5008 18.5Z" fill="#F9FAFB"/>
<path d="M7.49978 14.5C7.28478 14.5 7.08578 14.36 7.02078 14.144L4.02078 4.144C3.97578 3.992 4.00478 3.828 4.09878 3.702C4.19278 3.575 4.34178 3.5 4.49978 3.5H6.39178C7.25778 3.5 8.05078 3.939 8.51178 4.674L12.9498 13.781C13.0708 14.029 12.9678 14.328 12.7198 14.449C12.4758 14.568 12.1718 14.468 12.0518 14.218L7.63978 5.158C7.38778 4.764 6.91178 4.5 6.39178 4.5H5.17178L7.97878 13.856C8.05878 14.12 7.90878 14.399 7.64378 14.479C7.59578 14.493 7.54778 14.5 7.49978 14.5Z" fill="#F9FAFB"/>
<path d="M3.5 10.5C2.673 10.5 2 9.827 2 9C2 8.724 2.224 8.5 2.5 8.5C2.776 8.5 3 8.724 3 9C3 9.276 3.225 9.5 3.5 9.5C3.775 9.5 4 9.276 4 9V4C4 3.724 4.224 3.5 4.5 3.5C4.776 3.5 5 3.724 5 4V9C5 9.827 4.327 10.5 3.5 10.5Z" fill="#F9FAFB"/>
</g>
<defs>
<clipPath id="clip0_1884_225944">
<rect width="24" height="24" fill="#F9FAFB"/>
</clipPath>
</defs>
</svg>
