<svg width="68" height="68" viewBox="0 0 68 68" fill="none" xmlns="http://www.w3.org/2000/svg">
<g clip-path="url(#clip0_153_269)">
<mask id="path-1-inside-1_153_269" fill="white">
<path d="M65.9444 46.5001H61.7777V14.5556C61.7777 12.2584 59.9083 10.389 57.6111 10.389H10.3888C8.09163 10.389 6.22218 12.2584 6.22218 14.5556V46.5001H2.05551C1.28885 46.5001 0.666626 47.1223 0.666626 47.889V50.6668C0.666626 54.4945 3.78329 57.6112 7.61107 57.6112H60.3888C64.2166 57.6112 67.3333 54.4945 67.3333 50.6668V47.889C67.3333 47.1223 66.7111 46.5001 65.9444 46.5001ZM8.99996 14.5556C8.99996 13.789 9.62218 13.1668 10.3888 13.1668H57.6111C58.3777 13.1668 59 13.789 59 14.5556V46.5001H45.1111C44.7416 46.5001 44.3888 46.6473 44.1333 46.9056L41.7611 49.2779H26.2444L23.8722 46.9056C23.6111 46.6473 23.2583 46.5001 22.8888 46.5001H8.99996V14.5556ZM64.5555 50.6668C64.5555 52.964 62.6861 54.8334 60.3888 54.8334H7.61107C5.31385 54.8334 3.4444 52.964 3.4444 50.6668V49.2779H22.3138L24.6833 51.6501C24.9444 51.9084 25.2972 52.0556 25.6666 52.0556H42.3333C42.7027 52.0556 43.0555 51.9084 43.3138 51.6501L45.6861 49.2779H64.5555V50.6668Z"/>
</mask>
<path d="M61.7777 46.5001H55.7777V52.5001H61.7777V46.5001ZM6.22218 46.5001V52.5001H12.2222V46.5001H6.22218ZM59 46.5001V52.5001H65V46.5001H59ZM44.1333 46.9056L48.3759 51.1483L48.3874 51.1368L48.3988 51.1253L44.1333 46.9056ZM41.7611 49.2779V55.2779H44.2463L46.0037 53.5205L41.7611 49.2779ZM26.2444 49.2779L22.0018 53.5205L23.7591 55.2779H26.2444V49.2779ZM23.8722 46.9056L28.1148 42.663L28.1035 42.6517L28.0921 42.6404L23.8722 46.9056ZM8.99996 46.5001H2.99996V52.5001H8.99996V46.5001ZM3.4444 49.2779V43.2779H-2.5556V49.2779H3.4444ZM22.3138 49.2779L26.559 45.0377L24.8012 43.2779H22.3138V49.2779ZM24.6833 51.6501L20.4382 55.8902L20.4507 55.9028L20.4634 55.9154L24.6833 51.6501ZM43.3138 51.6501L39.0712 47.4074L39.0712 47.4074L43.3138 51.6501ZM45.6861 49.2779V43.2779H43.2008L41.4434 45.0352L45.6861 49.2779ZM64.5555 49.2779H70.5555V43.2779H64.5555V49.2779ZM65.9444 40.5001H61.7777V52.5001H65.9444V40.5001ZM67.7777 46.5001V14.5556H55.7777V46.5001H67.7777ZM67.7777 14.5556C67.7777 8.94471 63.222 4.38898 57.6111 4.38898V16.389C56.5946 16.389 55.7777 15.5721 55.7777 14.5556H67.7777ZM57.6111 4.38898H10.3888V16.389H57.6111V4.38898ZM10.3888 4.38898C4.77792 4.38898 0.222181 8.94471 0.222181 14.5556H12.2222C12.2222 15.5721 11.4053 16.389 10.3888 16.389V4.38898ZM0.222181 14.5556V46.5001H12.2222V14.5556H0.222181ZM6.22218 40.5001H2.05551V52.5001H6.22218V40.5001ZM2.05551 40.5001C-2.02486 40.5001 -5.33337 43.8086 -5.33337 47.889H6.66663C6.66663 50.436 4.60256 52.5001 2.05551 52.5001V40.5001ZM-5.33337 47.889V50.6668H6.66663V47.889H-5.33337ZM-5.33337 50.6668C-5.33337 57.8082 0.469584 63.6112 7.61107 63.6112V51.6112C7.097 51.6112 6.66663 51.1808 6.66663 50.6668H-5.33337ZM7.61107 63.6112H60.3888V51.6112H7.61107V63.6112ZM60.3888 63.6112C67.5303 63.6112 73.3333 57.8082 73.3333 50.6668H61.3333C61.3333 51.1808 60.9029 51.6112 60.3888 51.6112V63.6112ZM73.3333 50.6668V47.889H61.3333V50.6668H73.3333ZM73.3333 47.889C73.3333 43.8086 70.0248 40.5001 65.9444 40.5001V52.5001C63.3974 52.5001 61.3333 50.436 61.3333 47.889H73.3333ZM15 14.5556C15 17.1027 12.9359 19.1668 10.3888 19.1668V7.16675C6.30847 7.16675 2.99996 10.4753 2.99996 14.5556H15ZM10.3888 19.1668H57.6111V7.16675H10.3888V19.1668ZM57.6111 19.1668C55.064 19.1668 53 17.1027 53 14.5556H65C65 10.4753 61.6914 7.16675 57.6111 7.16675V19.1668ZM53 14.5556V46.5001H65V14.5556H53ZM59 40.5001H45.1111V52.5001H59V40.5001ZM45.1111 40.5001C43.1534 40.5001 41.2604 41.2782 39.8678 42.686L48.3988 51.1253C47.5173 52.0164 46.3298 52.5001 45.1111 52.5001V40.5001ZM39.8906 42.663L37.5184 45.0352L46.0037 53.5205L48.3759 51.1483L39.8906 42.663ZM41.7611 43.2779H26.2444V55.2779H41.7611V43.2779ZM30.487 45.0352L28.1148 42.663L19.6295 51.1483L22.0018 53.5205L30.487 45.0352ZM28.0921 42.6404C26.7215 41.2844 24.8579 40.5001 22.8888 40.5001V52.5001C21.6587 52.5001 20.5006 52.0102 19.6523 51.1709L28.0921 42.6404ZM22.8888 40.5001H8.99996V52.5001H22.8888V40.5001ZM15 46.5001V14.5556H2.99996V46.5001H15ZM58.5555 50.6668C58.5555 49.6503 59.3724 48.8334 60.3888 48.8334V60.8334C65.9998 60.8334 70.5555 56.2777 70.5555 50.6668H58.5555ZM60.3888 48.8334H7.61107V60.8334H60.3888V48.8334ZM7.61107 48.8334C8.62756 48.8334 9.4444 49.6503 9.4444 50.6668H-2.5556C-2.5556 56.2777 2.00014 60.8334 7.61107 60.8334V48.8334ZM9.4444 50.6668V49.2779H-2.5556V50.6668H9.4444ZM3.4444 55.2779H22.3138V43.2779H3.4444V55.2779ZM18.0687 53.518L20.4382 55.8902L28.9284 47.4099L26.559 45.0377L18.0687 53.518ZM20.4634 55.9154C21.8339 57.2713 23.6976 58.0556 25.6666 58.0556V46.0556C26.8968 46.0556 28.0549 46.5455 28.9032 47.3848L20.4634 55.9154ZM25.6666 58.0556H42.3333V46.0556H25.6666V58.0556ZM42.3333 58.0556C44.2968 58.0556 46.1749 57.2743 47.5565 55.8927L39.0712 47.4074C39.9362 46.5425 41.1087 46.0556 42.3333 46.0556V58.0556ZM47.5565 55.8927L49.9287 53.5205L41.4434 45.0352L39.0712 47.4074L47.5565 55.8927ZM45.6861 55.2779H64.5555V43.2779H45.6861V55.2779ZM58.5555 49.2779V50.6668H70.5555V49.2779H58.5555Z" fill="#F9FAFB" mask="url(#path-1-inside-1_153_269)"/>
</g>
<defs>
<clipPath id="clip0_153_269">
<rect width="66.6667" height="66.6667" fill="white" transform="translate(0.666626 0.666748)"/>
</clipPath>
</defs>
</svg>
