<svg width="65" height="65" viewBox="0 0 65 65" fill="none" xmlns="http://www.w3.org/2000/svg">
<g clip-path="url(#clip0_153_139)">
<path d="M58.2292 51.4583H6.77083C3.03604 51.4583 0 48.4196 0 44.6875V25.7291C0 21.9971 3.03604 18.9583 6.77083 18.9583H12.1875C12.935 18.9583 13.5417 19.565 13.5417 20.3125C13.5417 21.06 12.935 21.6666 12.1875 21.6666H6.77083C4.53104 21.6666 2.70833 23.4894 2.70833 25.7291V44.6875C2.70833 46.9273 4.53104 48.75 6.77083 48.75H58.2292C60.469 48.75 62.2917 46.9273 62.2917 44.6875V25.7291C62.2917 23.4894 60.469 21.6666 58.2292 21.6666H52.8125C52.065 21.6666 51.4583 21.06 51.4583 20.3125C51.4583 19.565 52.065 18.9583 52.8125 18.9583H58.2292C61.964 18.9583 65 21.9971 65 25.7291V44.6875C65 48.4196 61.964 51.4583 58.2292 51.4583Z" fill="#F9FAFB"/>
<path d="M52.8125 29.7917H12.1875C11.44 29.7917 10.8333 29.185 10.8333 28.4375V12.1875C10.8333 11.8273 10.9769 11.4833 11.2287 11.2287L22.0621 0.395417C22.3166 0.143542 22.6606 0 23.0208 0H52.8125C53.56 0 54.1666 0.606667 54.1666 1.35417V28.4375C54.1666 29.185 53.56 29.7917 52.8125 29.7917ZM13.5416 27.0833H51.4583V2.70833H23.5814L13.5416 12.7481V27.0833Z" fill="#F9FAFB"/>
<path d="M52.8125 65H12.1875C11.44 65 10.8333 64.3933 10.8333 63.6458V50.1042C10.8333 49.3567 11.44 48.75 12.1875 48.75H52.8125C53.56 48.75 54.1666 49.3567 54.1666 50.1042V63.6458C54.1666 64.3933 53.56 65 52.8125 65ZM13.5416 62.2917H51.4583V51.4583H13.5416V62.2917Z" fill="#F9FAFB"/>
<path d="M23.0208 13.5417H12.1875C11.44 13.5417 10.8333 12.935 10.8333 12.1875C10.8333 11.44 11.44 10.8333 12.1875 10.8333H21.6666V1.35417C21.6666 0.606667 22.2733 0 23.0208 0C23.7683 0 24.375 0.606667 24.375 1.35417V12.1875C24.375 12.935 23.7683 13.5417 23.0208 13.5417Z" fill="#F9FAFB"/>
<path d="M58.2292 27.0833C58.9771 27.0833 59.5833 26.4771 59.5833 25.7292C59.5833 24.9813 58.9771 24.375 58.2292 24.375C57.4813 24.375 56.875 24.9813 56.875 25.7292C56.875 26.4771 57.4813 27.0833 58.2292 27.0833Z" fill="#F9FAFB"/>
</g>
<defs>
<clipPath id="clip0_153_139">
<rect width="65" height="65" fill="white"/>
</clipPath>
</defs>
</svg>
