<svg width="24" height="20" viewBox="0 0 24 20" fill="none" xmlns="http://www.w3.org/2000/svg">
<path d="M9.00002 9.50018H8.00002C7.17302 9.50018 6.50002 10.1732 6.50002 11.0002V12.0002C6.50002 12.8272 7.17302 13.5002 8.00002 13.5002H9.00002C9.17602 13.5002 9.34302 13.4642 9.50002 13.4082V13.5002C9.50002 14.6032 8.60302 15.5002 7.50002 15.5002C7.22402 15.5002 7.00002 15.7242 7.00002 16.0002C7.00002 16.2762 7.22402 16.5002 7.50002 16.5002C9.15402 16.5002 10.5 15.1542 10.5 13.5002V11.0002C10.5 10.1732 9.82702 9.50018 9.00002 9.50018ZM9.50002 12.0002C9.50002 12.2762 9.27602 12.5002 9.00002 12.5002H8.00002C7.72402 12.5002 7.50002 12.2762 7.50002 12.0002V11.0002C7.50002 10.7242 7.72402 10.5002 8.00002 10.5002H9.00002C9.27602 10.5002 9.50002 10.7242 9.50002 11.0002V12.0002ZM18 8.50018C17.173 8.50018 16.5 9.17318 16.5 10.0002C16.5 10.8272 17.173 11.5002 18 11.5002C18.827 11.5002 19.5 10.8272 19.5 10.0002C19.5 9.17318 18.827 8.50018 18 8.50018ZM18 10.5002C17.724 10.5002 17.5 10.2762 17.5 10.0002C17.5 9.72418 17.724 9.50018 18 9.50018C18.276 9.50018 18.5 9.72418 18.5 10.0002C18.5 10.2762 18.276 10.5002 18 10.5002ZM23.055 0.503183C22.785 0.474183 22.534 0.671183 22.503 0.945183L21.994 5.52518C21.963 5.99118 21.07 6.50018 19.875 6.50018C18.659 6.50018 17.75 5.97218 17.75 5.50018C17.75 5.22418 17.526 5.00018 17.25 5.00018C16.974 5.00018 16.75 5.22418 16.75 5.50018C16.75 5.97218 15.841 6.50018 14.625 6.50018C13.409 6.50018 12.5 5.97218 12.5 5.50018C12.5 5.22418 12.276 5.00018 12 5.00018C11.724 5.00018 11.5 5.22418 11.5 5.50018C11.5 5.97218 10.591 6.50018 9.37502 6.50018C8.15902 6.50018 7.25002 5.97218 7.25002 5.50018C7.25002 5.22418 7.02602 5.00018 6.75002 5.00018C6.47402 5.00018 6.25002 5.22418 6.25002 5.50018C6.25002 5.97218 5.34102 6.50018 4.12502 6.50018C2.93002 6.50018 2.03702 5.99118 2.00602 5.52518L1.49702 0.945183C1.46702 0.671183 1.22102 0.472183 0.945018 0.503183C0.670018 0.534183 0.473018 0.781183 0.503018 1.05518L2.30502 17.2762C2.44602 18.5442 3.51502 19.5002 4.79002 19.5002H19.21C20.485 19.5002 21.554 18.5442 21.695 17.2762L23.497 1.05518C23.527 0.781183 23.329 0.534183 23.055 0.503183ZM20.701 17.1662C20.616 17.9262 19.975 18.5002 19.21 18.5002H4.79002C4.02502 18.5002 3.38402 17.9262 3.29902 17.1662L2.17702 7.06318C2.70902 7.33418 3.37802 7.50018 4.12502 7.50018C5.24102 7.50018 6.19802 7.14218 6.75002 6.59418C7.30202 7.14218 8.25902 7.50018 9.37502 7.50018C10.491 7.50018 11.448 7.14218 12 6.59418C12.552 7.14218 13.509 7.50018 14.625 7.50018C15.741 7.50018 16.698 7.14218 17.25 6.59418C17.802 7.14218 18.759 7.50018 19.875 7.50018C20.622 7.50018 21.291 7.33318 21.823 7.06318L20.701 17.1662ZM13.5 9.50018C12.397 9.50018 11.5 10.3972 11.5 11.5002V14.5002C11.5 15.6032 12.397 16.5002 13.5 16.5002C14.603 16.5002 15.5 15.6032 15.5 14.5002V11.5002C15.5 10.3972 14.603 9.50018 13.5 9.50018ZM14.5 14.5002C14.5 15.0512 14.051 15.5002 13.5 15.5002C12.949 15.5002 12.5 15.0512 12.5 14.5002V11.5002C12.5 10.9492 12.949 10.5002 13.5 10.5002C14.051 10.5002 14.5 10.9492 14.5 11.5002V14.5002Z" fill="#F9FAFB"/>
</svg>
