<svg width="70" height="70" viewBox="0 0 70 70" fill="none" xmlns="http://www.w3.org/2000/svg">
<path d="M61.25 2.91669H8.74998C4.73081 2.91669 1.45831 6.18919 1.45831 10.2084V48.125C1.45831 52.1442 4.73081 55.4167 8.74998 55.4167H33.5416V64.1667H14.5833C13.7783 64.1667 13.125 64.82 13.125 65.625C13.125 66.43 13.7783 67.0834 14.5833 67.0834H55.4166C56.2216 67.0834 56.875 66.43 56.875 65.625C56.875 64.82 56.2216 64.1667 55.4166 64.1667H36.4583V55.4167H61.25C65.2691 55.4167 68.5416 52.1442 68.5416 48.125V10.2084C68.5416 6.18919 65.2691 2.91669 61.25 2.91669ZM65.625 40.8334H4.37498V10.2084C4.37498 7.79627 6.3379 5.83335 8.74998 5.83335H61.25C63.6621 5.83335 65.625 7.79627 65.625 10.2084V40.8334Z" fill="#F9FAFB"/>
</svg>
