<svg xmlns="http://www.w3.org/2000/svg" viewBox="0 0 66 65" fill="none">
<g clip-path="url(#clip0_151_217)">
<path d="M61.6875 5.41669H4.8125C2.57271 5.41669 0.75 7.2394 0.75 9.47919V47.3959C0.75 49.6356 2.57271 51.4584 4.8125 51.4584H27.8333V54.3752L12.7154 56.894C11.9788 57.0159 11.4777 57.7146 11.6023 58.4513C11.7133 59.1148 12.2875 59.5834 12.9348 59.5834C13.0079 59.5834 13.0865 59.5779 13.1596 59.5644L29.2958 56.875H37.2042L53.3404 59.5644C53.4135 59.5779 53.4921 59.5834 53.5652 59.5834C54.2125 59.5834 54.7867 59.1148 54.8977 58.4513C55.0223 57.7146 54.5213 57.0159 53.7846 56.894L38.6667 54.3752V51.4584H61.6875C63.9273 51.4584 65.75 49.6356 65.75 47.3959V9.47919C65.75 7.2394 63.9273 5.41669 61.6875 5.41669ZM35.9583 54.1667H30.5417V51.4584H35.9583V54.1667ZM63.0417 47.3959C63.0417 48.1434 62.4323 48.75 61.6875 48.75H4.8125C4.06771 48.75 3.45833 48.1434 3.45833 47.3959V9.47919C3.45833 8.73169 4.06771 8.12502 4.8125 8.12502H61.6875C62.4323 8.12502 63.0417 8.73169 63.0417 9.47919V47.3959ZM25.125 18.9584C22.1377 18.9584 19.7083 21.3877 19.7083 24.375C19.7083 25.1225 20.315 25.7292 21.0625 25.7292C21.81 25.7292 22.4167 25.1225 22.4167 24.375C22.4167 22.8827 23.63 21.6667 25.125 21.6667C26.62 21.6667 27.8333 22.8827 27.8333 24.375C27.8333 25.8673 26.62 27.0834 25.125 27.0834C24.3775 27.0834 23.7708 27.69 23.7708 28.4375C23.7708 29.185 24.3775 29.7917 25.125 29.7917C26.62 29.7917 27.8333 31.0077 27.8333 32.5C27.8333 33.9923 26.62 35.2084 25.125 35.2084C23.63 35.2084 22.4167 33.9923 22.4167 32.5C22.4167 31.7525 21.81 31.1459 21.0625 31.1459C20.315 31.1459 19.7083 31.7525 19.7083 32.5C19.7083 35.4873 22.1377 37.9167 25.125 37.9167C28.1123 37.9167 30.5417 35.4873 30.5417 32.5C30.5417 30.8831 29.8294 29.4315 28.7027 28.4375C29.8294 27.4436 30.5417 25.9919 30.5417 24.375C30.5417 21.3877 28.1123 18.9584 25.125 18.9584ZM40.0208 18.9584H34.6042C33.8567 18.9584 33.25 19.565 33.25 20.3125V36.5625C33.25 37.31 33.8567 37.9167 34.6042 37.9167H40.0208C43.7556 37.9167 46.7917 34.8779 46.7917 31.1459V25.7292C46.7917 21.9971 43.7556 18.9584 40.0208 18.9584ZM44.0833 31.1459C44.0833 33.3856 42.2606 35.2084 40.0208 35.2084H35.9583V21.6667H40.0208C42.2606 21.6667 44.0833 23.4894 44.0833 25.7292V31.1459Z" fill="#F9FAFB"/>
</g>
<defs>
<clipPath id="clip0_151_217">
<rect width="65" height="65" fill="white" transform="translate(0.75)"/>
</clipPath>
</defs>
</svg>
