<svg width="66" height="75" viewBox="0 0 66 75" fill="none" xmlns="http://www.w3.org/2000/svg">
<path d="M46.5417 0H19.4583C15.7262 0 12.6875 3.50625 12.6875 7.8125V67.1875C12.6875 71.4938 15.7262 75 19.4583 75H46.5417C50.2738 75 53.3125 71.4938 53.3125 67.1875V7.8125C53.3125 3.50625 50.2738 0 46.5417 0ZM43.8604 6.25H43.8875C44.635 6.25 45.2417 6.95 45.2417 7.8125C45.2417 8.675 44.635 9.375 43.8875 9.375C43.14 9.375 42.5198 8.675 42.5198 7.8125C42.5198 6.95 43.1129 6.25 43.8604 6.25ZM30.2917 6.25H35.7083C36.4558 6.25 37.0625 6.95 37.0625 7.8125C37.0625 8.675 36.4558 9.375 35.7083 9.375H30.2917C29.5442 9.375 28.9375 8.675 28.9375 7.8125C28.9375 6.95 29.5442 6.25 30.2917 6.25ZM33 68.75C31.5077 68.75 30.2917 67.3469 30.2917 65.625C30.2917 63.9031 31.5077 62.5 33 62.5C34.4923 62.5 35.7083 63.9031 35.7083 65.625C35.7083 67.3469 34.4923 68.75 33 68.75ZM50.6042 56.25H15.3958V15.625H50.6042V56.25Z" fill="#F9FAFB"/>
</svg>
